<?xml version="1.0" encoding="utf-8"?>
<!-- Generator: Adobe Illustrator 26.5.0, SVG Export Plug-In . SVG Version: 6.00 Build 0)  -->
<svg version="1.1" id="Слой_1" xmlns="http://www.w3.org/2000/svg" xmlns:xlink="http://www.w3.org/1999/xlink" x="0px" y="0px"
	 viewBox="0 0 176.08 157.56" style="enable-background:new 0 0 176.08 157.56;" xml:space="preserve">
<style type="text/css">
	.st0{fill-rule:evenodd;clip-rule:evenodd;fill:#FFFFFF;}
	.st1{fill-rule:evenodd;clip-rule:evenodd;fill:#0072BB;}
	.st2{fill-rule:evenodd;clip-rule:evenodd;fill:#DA291C;}
</style>
<polygon class="st0" points="148.27,36.68 165.07,6.62 130.93,6.62 130.88,6.7 113.75,36.68 "/>
<polygon class="st1" points="95.05,69.39 129.98,69.39 146.82,39.27 112.27,39.27 "/>
<path class="st2" d="M84.29,88.23c-0.16,0.3-4.04,7.19-7.37,9.5c-0.04,0.03-0.09,0.06-0.14,0.09c-1.04,0.9-1.96,1.58-2.82,2.06
	c-0.59,0.35-1.18,0.75-1.75,1.13c-0.34,0.23-0.67,0.45-0.99,0.65c0,0-0.29,0.13-0.74,0.32h41.28l16.77-30H93.57L84.29,88.23z"/>
<path class="st0" d="M81.36,68.97l-1.42,2.82l-0.47,0.94c-0.43,0.84-0.84,1.68-1.26,2.53c-0.72,1.47-1.47,2.98-2.27,4.49
	c-0.68,1.27-1.58,2.92-2.59,4.63l-0.01,0.02l-0.01,0.02c-0.72,1.15-1.32,2.07-1.89,2.89l-0.03,0.05l-0.04,0.05l-1.22,1.54
	l-0.06,0.08l-0.07,0.07l-0.59,0.6l-0.05,0.05l-0.05,0.05l-0.68,0.61l-0.11,0.1l-0.13,0.08l-0.64,0.41l-0.09,0.06l-0.09,0.05
	l-0.84,0.42c-0.71,0.37-1.57,0.81-2.52,1.26l-0.07,0.03l-0.07,0.03l-0.96,0.37l-0.11,0.04l-0.11,0.03l-0.93,0.24l-0.07,0.02
	l-0.08,0.01l-1.05,0.18l-0.1,0.01l-0.11,0.01l-0.96,0.06l-0.06,0h-0.06h-1.35h-0.25h-0.63h-0.46l-0.67,6.27h4.91l3.81-0.94
	c0.74-0.18,1.4-0.38,1.99-0.59l0.96-0.39c1.28-0.59,2.59-1.38,3.86-2.14l0.51-0.3L73.13,95c0.44-0.36,0.92-0.8,1.39-1.24l0.12-0.11
	c0.72-0.72,1.22-1.27,1.7-1.83l0.17-0.22c0.58-0.74,1.17-1.5,1.66-2.24l0.02-0.03l0.02-0.03c0.68-0.95,1.32-1.95,1.96-3.05
	l44.46-77.69h-9.65L84.65,64.41l-0.55,1.01h-1.15h-0.29h-1.47h-1.1h-1.94v-1.94V8.5h-8.93v60.47h8.99H81.36z"/>
<path class="st0" d="M45.08,118.43h-5.71l-4.18,15.59h-7.03l4.21-15.59h-5.71l-5.53,20.59h15.3l-1.12,4.12h4.83l3.09-9.12h-2.32
	L45.08,118.43z M44.25,119.07l-3.96,14.78l-0.21,0.8h0.83h1.43l-2.65,7.84h-3.53l0.9-3.31l0.22-0.81h-0.84H21.98l5.19-19.31h4.38
	l-3.99,14.78l-0.22,0.81h0.83h7.03h0.49l0.13-0.47l4.05-15.11H44.25z M170.91,118.43h-7.27l-8.5,8.23l2.23-8.23h-5.73l-5.53,20.59
	h5.74l1.24-4.68l3.56-3.26l2.97,7.94h6.18l-4.59-11.56L170.91,118.43z M169.28,119.07l-8.51,7.92l-0.32,0.3l0.16,0.41l4.24,10.68
	h-4.79l-2.81-7.53l-0.33-0.89l-0.7,0.64l-3.56,3.27l-0.14,0.13l-0.05,0.18l-1.11,4.2h-4.41l5.19-19.31h4.41l-2.02,7.43l-0.61,2.25
	l1.67-1.62l8.31-8.05H169.28z M174.16,117.15h-3.26h-7.27h-0.52l-0.37,0.36l-5.15,4.99l1.02-3.73l0.44-1.62h-1.67h-5.73h-0.98
	l-0.25,0.95l-5.53,20.59l-0.44,1.61h1.67h5.73h0.99l0.25-0.96l1.14-4.31l1.88-1.73l2.31,6.17l0.31,0.83h0.89h6.18h1.89l-0.7-1.75
	l-4.26-10.75l9.06-8.43L174.16,117.15z M132.87,132.55l2.21-8.09c2.21,0.15,3.62,1.35,3.62,3.35c0,3.06-2.35,4.74-5.21,4.74H132.87z
	 M130.03,124.43l-2.2,8.12c-2.09-0.18-3.44-1.35-3.44-3.36c0-3,2.27-4.76,5.2-4.76H130.03z M137.62,117.55h-5.74l-0.5,1.82h-1.09
	c-7.18,0-11.83,4.47-11.83,10.44c0,4.24,2.77,7.33,8,7.74l-0.62,2.35h5.74l0.62-2.29h1.26c7.18,0,11.83-4.65,11.83-10.65
	c0-4.18-2.88-7.18-8.18-7.53L137.62,117.55z M128.31,133.23l0.14-0.51l2.21-8.12l0.22-0.81h-0.84h-0.44c-3.44,0-5.85,2.22-5.85,5.4
	c0,2.25,1.55,3.78,4.03,4L128.31,133.23z M132.03,133.19h0.84h0.62c3.44,0,5.85-2.21,5.85-5.38c0-2.29-1.62-3.82-4.22-3.99
	l-0.52-0.03l-0.14,0.5l-2.2,8.09L132.03,133.19z M136.79,118.19l-0.29,1.08l-0.2,0.75l0.77,0.05c4.75,0.32,7.58,2.89,7.58,6.89
	c0,5.89-4.6,10.01-11.19,10.01l-1.26,0h-0.49l-0.13,0.48l-0.49,1.82h-4.41l0.41-1.55l0.19-0.74l-0.76-0.06
	c-4.64-0.37-7.41-3.02-7.41-7.1c0-5.77,4.6-9.8,11.18-9.8h1.09h0.49l0.13-0.47l0.37-1.35H136.79z M126.91,131.06
	c-0.82-0.31-1.24-0.93-1.24-1.86c0-1.99,1.22-2.99,2.65-3.34L126.91,131.06z M134.58,131.16l1.43-5.24
	c0.76,0.25,1.41,0.79,1.41,1.89C137.41,129.87,136.09,130.86,134.58,131.16z M139.29,116.27h-1.66h-5.74h-0.98l-0.26,0.94
	l-0.24,0.88h-0.11c-7.72,0-13.11,4.82-13.11,11.72c0,4.64,2.9,7.92,7.68,8.82l-0.25,0.95l-0.42,1.61h1.66h5.74h0.98l0.26-0.95
	l0.36-1.35h0.28c7.6,0,13.11-5.02,13.11-11.93c0-4.58-2.96-7.79-7.84-8.63l0.12-0.45L139.29,116.27z M117.42,118.43h-5.32
	l-11.06,11.59l3.09-11.59h-5.62l-5.53,20.59h5.32l11.06-11.59l-3.09,11.59h5.65L117.42,118.43z M116.58,119.07l-5.16,19.31h-4.32
	l2.87-10.78l0.65-2.42l-1.73,1.81l-10.87,11.39h-4.21l5.19-19.31h4.29l-2.87,10.78l-0.64,2.42l1.72-1.81l10.87-11.39H116.58z
	 M119.08,117.15h-1.67h-5.33h-0.55l-0.38,0.4l-7.61,7.97l1.8-6.76l0.43-1.61h-1.67H98.5h-0.98l-0.26,0.95l-5.53,20.59l-0.43,1.61
	h1.67h5.32h0.55l0.38-0.4l7.61-7.97l-1.8,6.76l-0.43,1.61h1.67h5.65h0.98l0.25-0.95l5.5-20.59L119.08,117.15z M94.71,118.43H78.89
	l-1.12,4.21c-3.15,11.82-4.74,11.94-6.35,11.94c-0.26,0-1.03-0.06-1.3-0.12l-1.53,4.38c0.38,0.15,1.85,0.47,3.35,0.47
	c4,0,7-1.38,10.41-13.94l0.56-2.09h4.79l-4.2,15.74h5.7L94.71,118.43z M93.88,119.07l-5.16,19.31h-4.38l3.99-14.93l0.21-0.8h-0.83
	h-4.79h-0.49l-0.13,0.47l-0.56,2.09c-3.4,12.5-6.2,13.47-9.79,13.47c-0.96,0-1.91-0.14-2.52-0.27l1.13-3.24
	c0.33,0.03,0.69,0.05,0.86,0.05c2.22,0,3.9-0.87,6.97-12.42l0.99-3.73H93.88z M96.38,117.15h-1.67H78.89H77.9l-0.25,0.95l-1.12,4.21
	c-1.38,5.19-2.55,8.47-3.58,10.03c-0.63,0.96-0.92,0.96-1.53,0.96c-0.21,0-0.87-0.06-1.02-0.08l-1.1-0.23l-0.39,1.06l-1.53,4.38
	l-0.41,1.17l1.16,0.45c0.6,0.23,2.27,0.56,3.81,0.56c5.04,0,8.23-2.3,11.65-14.89l0.31-1.14h2.14l-3.78,14.13l-0.43,1.61h1.67h5.71
	h0.98l0.25-0.95l5.5-20.59L96.38,117.15z M56.99,134.29c-2.91,0-4.5-1.94-4.5-4.56c0-3.06,2.35-6.56,5.94-6.56
	c2.91,0,4.5,1.95,4.5,4.56C62.94,130.79,60.61,134.29,56.99,134.29z M58.93,118.05c-7.15,0-12.26,5.86-12.26,12.12
	c0,5.24,3.97,9.24,9.82,9.24c7.15,0,12.27-5.85,12.27-12.12C68.76,122.05,64.79,118.05,58.93,118.05 M56.99,134.93
	c3.94,0,6.58-3.72,6.58-7.2c0-3.16-2.02-5.2-5.14-5.2c-3.94,0-6.58,3.72-6.58,7.2C51.85,132.89,53.87,134.93,56.99,134.93
	 M58.93,118.69c5.32,0,9.18,3.62,9.18,8.6c0,5.52-4.44,11.48-11.63,11.48c-5.32,0-9.18-3.62-9.18-8.6
	C47.31,124.65,51.75,118.69,58.93,118.69L58.93,118.69z M56.99,133c-2.91,0-3.22-2.29-3.22-3.28c0-2.5,1.91-5.28,4.66-5.28
	c2.91,0,3.22,2.3,3.22,3.28C61.66,130.22,59.74,133,56.99,133z M58.93,116.77c-7.47,0-13.55,6.01-13.55,13.4
	c0,6.09,4.67,10.52,11.1,10.52c7.47,0,13.55-6.01,13.55-13.4C70.04,121.19,65.37,116.77,58.93,116.77 M46.75,117.15h-1.67h-5.71
	h-0.98l-0.25,0.95l-3.92,14.64h-4.37l3.77-13.97l0.43-1.62h-1.67h-5.71h-0.98l-0.25,0.95l-5.53,20.59l-0.43,1.61h1.67h13.62
	l-0.68,2.5l-0.44,1.62h1.67h4.83h0.92l0.3-0.87l3.09-9.12l0.57-1.69h-1.79h-0.66l3.75-13.97L46.75,117.15z M23.11,118.43H8.58
	l-5.5,20.59h5.71l4.18-15.59h8.82L23.11,118.43z M22.28,119.07l-0.98,3.72h-8.33h-0.49l-0.13,0.47L8.3,138.38H3.92l5.16-19.31H22.28
	z M24.78,117.15h-1.67H8.58H7.6l-0.25,0.95l-5.5,20.59l-0.43,1.61h1.66h5.71h0.98l0.25-0.95l3.92-14.64h7.84h0.99l0.25-0.95l1.32-5
	L24.78,117.15z"/>
<g>
	<path class="st0" d="M3.78,153c0.66,0,1.05-0.39,1.05-0.92c0-0.59-0.41-0.9-1.07-0.9H2.73V153H3.78z M1.42,149.98h2.44
		c1.43,0,2.29,0.85,2.29,2.09c0,1.38-1.08,2.1-2.42,2.1h-1v1.79H1.42V149.98z"/>
	<path class="st0" d="M11.85,152.98c0-1.03-0.75-1.88-1.81-1.88c-1.06,0-1.8,0.84-1.8,1.88c0,1.03,0.75,1.88,1.81,1.88
		C11.11,154.86,11.85,154.02,11.85,152.98 M6.86,152.98c0-1.7,1.34-3.1,3.19-3.1c1.85,0,3.17,1.38,3.17,3.1c0,1.7-1.34,3.1-3.19,3.1
		C8.19,156.07,6.86,154.7,6.86,152.98z"/>
	<path class="st0" d="M14.13,152.98c0-1.7,1.28-3.1,3.12-3.1c1.13,0,1.76,0.43,2.32,0.98l-0.79,0.91c-0.46-0.42-0.86-0.67-1.54-0.67
		c-1.01,0-1.74,0.84-1.74,1.88c0,1.03,0.71,1.88,1.74,1.88c0.68,0,1.11-0.27,1.57-0.7l0.84,0.9c-0.62,0.66-1.3,1.02-2.46,1.02
		C15.44,156.07,14.13,154.72,14.13,152.98"/>
	<path class="st0" d="M20.27,152.98c0-1.7,1.28-3.1,3.12-3.1c1.13,0,1.76,0.43,2.32,0.98l-0.79,0.91c-0.46-0.42-0.86-0.67-1.54-0.67
		c-1.01,0-1.74,0.84-1.74,1.88c0,1.03,0.71,1.88,1.74,1.88c0.68,0,1.11-0.27,1.57-0.7l0.84,0.9c-0.62,0.66-1.3,1.02-2.46,1.02
		C21.57,156.07,20.27,154.72,20.27,152.98"/>
	<polygon class="st0" points="32,155.97 30.7,155.97 30.7,152.05 28.09,155.97 26.84,155.97 26.84,149.98 28.14,149.98 
		28.14,153.91 30.78,149.98 32,149.98 	"/>
	<path class="st0" d="M34.6,148.23l0.76-0.14c0.11,0.35,0.32,0.58,0.67,0.58c0.36,0,0.57-0.22,0.68-0.58l0.76,0.14
		c-0.12,0.82-0.65,1.3-1.44,1.3C35.25,149.53,34.72,149.05,34.6,148.23 M38.6,155.97h-1.3v-3.93l-2.62,3.93h-1.24v-5.99h1.3v3.93
		l2.63-3.93h1.22V155.97z"/>
	<path class="st0" d="M39.76,152.98c0-1.7,1.28-3.1,3.12-3.1c1.13,0,1.76,0.43,2.32,0.98l-0.79,0.91c-0.46-0.42-0.86-0.67-1.54-0.67
		c-1.01,0-1.74,0.84-1.74,1.88c0,1.03,0.71,1.88,1.74,1.88c0.68,0,1.11-0.27,1.57-0.7l0.84,0.9c-0.61,0.66-1.3,1.02-2.45,1.02
		C41.07,156.07,39.76,154.72,39.76,152.98"/>
	<polygon class="st0" points="46.34,149.98 47.66,149.98 47.66,152.6 50.08,149.98 51.68,149.98 49.24,152.52 51.79,155.97 
		50.21,155.97 48.35,153.42 47.66,154.14 47.66,155.97 46.34,155.97 	"/>
	<polygon class="st0" points="57.74,155.97 56.44,155.97 56.44,152.05 53.82,155.97 52.58,155.97 52.58,149.98 53.88,149.98 
		53.88,153.91 56.52,149.98 57.74,149.98 	"/>
	<path class="st0" d="M60.34,148.23l0.76-0.14c0.11,0.35,0.32,0.58,0.68,0.58c0.36,0,0.56-0.22,0.68-0.58l0.76,0.14
		c-0.12,0.82-0.65,1.3-1.43,1.3C60.99,149.53,60.46,149.05,60.34,148.23 M64.33,155.97h-1.3v-3.93l-2.62,3.93h-1.24v-5.99h1.3v3.93
		l2.63-3.93h1.22V155.97z"/>
	<path class="st0" d="M72.31,149.98h1.43l-2.3,4.63c-0.52,1.04-1.12,1.46-1.96,1.46c-0.51,0-0.91-0.14-1.29-0.35l0.51-0.97
		c0.24,0.15,0.48,0.2,0.71,0.2c0.24,0,0.51-0.11,0.75-0.48l-2.39-4.48h1.47l1.63,3.17L72.31,149.98z"/>
	<polygon class="st0" points="74.61,149.98 75.92,149.98 75.92,152.36 78.35,152.36 78.35,149.98 79.67,149.98 79.67,155.97 
		78.35,155.97 78.35,153.57 75.92,153.57 75.92,155.97 74.61,155.97 	"/>
	<polygon class="st0" points="86.26,155.97 84.96,155.97 84.96,152.05 82.35,155.97 81.11,155.97 81.11,149.98 82.4,149.98 
		82.4,153.91 85.04,149.98 86.26,149.98 	"/>
	<path class="st0" d="M90.55,154.82c0.58,0,0.93-0.2,0.93-0.67c0-0.4-0.3-0.65-0.98-0.65h-1.52v1.32H90.55z M90.2,152.41
		c0.58,0,0.95-0.19,0.95-0.65c0-0.39-0.3-0.62-0.86-0.62h-1.3v1.27H90.2z M87.7,149.98h2.78c0.68,0,1.23,0.19,1.57,0.53
		c0.27,0.27,0.41,0.61,0.41,1.04c0,0.67-0.36,1.05-0.79,1.29c0.69,0.26,1.12,0.67,1.12,1.49c0,1.1-0.89,1.64-2.24,1.64l-2.85,0
		V149.98z"/>
	<polygon class="st0" points="93.87,149.98 98.39,149.98 98.39,151.16 95.18,151.16 95.18,152.37 98,152.37 98,153.54 95.18,153.54 
		95.18,154.8 98.43,154.8 98.43,155.97 93.87,155.97 	"/>
	<path class="st0" d="M101.96,153c0.66,0,1.05-0.39,1.05-0.92c0-0.59-0.41-0.9-1.07-0.9h-1.02V153H101.96z M99.6,149.98h2.45
		c1.43,0,2.29,0.85,2.29,2.09c0,1.38-1.08,2.1-2.42,2.1h-1v1.79H99.6V149.98z"/>
	<path class="st0" d="M105.05,152.98c0-1.7,1.28-3.1,3.12-3.1c1.13,0,1.76,0.43,2.32,0.98l-0.79,0.91
		c-0.46-0.42-0.86-0.67-1.54-0.67c-1.01,0-1.74,0.84-1.74,1.88c0,1.03,0.71,1.88,1.74,1.88c0.68,0,1.11-0.27,1.57-0.7l0.84,0.9
		c-0.62,0.66-1.3,1.02-2.45,1.02C106.35,156.07,105.05,154.72,105.05,152.98"/>
	<polygon class="st0" points="116.78,155.97 115.48,155.97 115.48,152.05 112.86,155.97 111.62,155.97 111.62,149.98 112.92,149.98 
		112.92,153.91 115.56,149.98 116.78,149.98 	"/>
	<polygon class="st0" points="119.61,151.2 117.79,151.2 117.79,149.98 122.75,149.98 122.75,151.2 120.92,151.2 120.92,155.97 
		119.61,155.97 	"/>
	<polygon class="st0" points="123.75,149.98 128.27,149.98 128.27,151.16 125.06,151.16 125.06,152.37 127.88,152.37 127.88,153.54 
		125.06,153.54 125.06,154.8 128.31,154.8 128.31,155.97 123.75,155.97 	"/>
	<polygon class="st0" points="130.88,151.2 129.05,151.2 129.05,149.98 134.02,149.98 134.02,151.2 132.2,151.2 132.2,155.97 
		130.88,155.97 	"/>
	<path class="st0" d="M137.32,152.98c0-1.7,1.28-3.1,3.12-3.1c1.13,0,1.76,0.43,2.32,0.98l-0.79,0.91
		c-0.46-0.42-0.86-0.67-1.54-0.67c-1.01,0-1.73,0.84-1.73,1.88c0,1.03,0.71,1.88,1.73,1.88c0.68,0,1.11-0.27,1.57-0.7l0.84,0.9
		c-0.62,0.66-1.3,1.02-2.46,1.02C138.63,156.07,137.32,154.72,137.32,152.98"/>
	<polygon class="st0" points="143.9,149.98 148.89,149.98 148.89,155.97 147.58,155.97 147.58,151.17 145.21,151.17 145.21,155.97 
		143.9,155.97 	"/>
	<path class="st0" d="M155.05,152.98c0-1.03-0.75-1.88-1.81-1.88c-1.06,0-1.8,0.84-1.8,1.88c0,1.03,0.75,1.88,1.81,1.88
		C154.31,154.86,155.05,154.02,155.05,152.98 M150.06,152.98c0-1.7,1.34-3.1,3.19-3.1c1.85,0,3.17,1.38,3.17,3.1
		c0,1.7-1.34,3.1-3.19,3.1C151.39,156.07,150.06,154.7,150.06,152.98z"/>
	<path class="st0" d="M159.96,153c0.66,0,1.05-0.39,1.05-0.92c0-0.59-0.41-0.9-1.07-0.9h-1.02V153H159.96z M157.59,149.98h2.45
		c1.43,0,2.29,0.85,2.29,2.09c0,1.38-1.08,2.1-2.42,2.1h-1v1.79h-1.32V149.98z"/>
	<polygon class="st0" points="164.7,151.2 162.88,151.2 162.88,149.98 167.84,149.98 167.84,151.2 166.02,151.2 166.02,155.97 
		164.7,155.97 	"/>
	<path class="st0" d="M171.52,153.47l-0.79-1.94l-0.8,1.94H171.52z M170.13,149.94h1.22l2.56,6.03h-1.37l-0.55-1.34h-2.53
		l-0.55,1.34h-1.34L170.13,149.94z"/>
</g>
<path class="st0" d="M54.98,6.62h9.77v10.07H54.57c-20.74,0-37.61,16.87-37.61,37.61c0,20.05,15.77,36.48,35.55,37.56l-1,10.04
	C26.51,100.46,6.61,79.66,6.61,54.3C6.61,28.01,28,6.62,54.29,6.62C54.52,6.62,54.75,6.62,54.98,6.62L54.98,6.62z M64.75,30.11
	H54.29c-13.35,0-24.2,10.86-24.2,24.2c0,13.34,10.85,24.2,24.2,24.2l17.25,0l-0.37,0.68c-2.47,4.52-4.37,7.17-5.62,7.86l-0.62,0.33
	c-1.91,1.01-3.55,1.88-5.46,1.88l-2.88,0l-2.38,0c-19.11-0.2-34.59-15.8-34.59-34.95c0-19.28,15.68-34.96,34.96-34.96l10.18,0V30.11
	z M64.75,45.31v17.98c-3.16,0-10.43,0-10.46,0c-4.96,0-8.99-4.03-8.99-8.99c0-4.96,4.03-8.99,8.99-8.99H64.75z M54.29,42.72
	c-6.39,0-11.58,5.2-11.58,11.58c0,6.39,5.19,11.58,11.58,11.58c6,0,8.98,0,10.46,0l0,7.69h9.32c-0.39,0.79-0.78,1.56-1.17,2.32
	H54.29c-11.91,0-21.61-9.69-21.61-21.6c0-11.91,9.69-21.6,21.61-21.6h10.46v10.02H54.29z M67.28,6.62h12.81V63.5h2.86l30.9-56.85
	h14.15L81.86,87.26c-0.68,1.16-1.35,2.2-2.07,3.2c-0.53,0.8-1.15,1.59-1.74,2.35l-0.19,0.25c-0.53,0.62-1.09,1.23-1.86,2.01
	l-0.15,0.14c-0.51,0.47-1.04,0.96-1.55,1.36l-1.09,0.76l-0.56,0.34c-1.33,0.8-2.71,1.63-4.09,2.26l-1.04,0.42
	c-0.68,0.25-1.4,0.46-2.23,0.67l-3.92,0.97h-6.99h-0.09c-0.11,0-0.22-0.01-0.34-0.01l1.08-10.12h1.56v0h0.65h0.63h0.25h1.35
	l0.96-0.06l1.05-0.18l0.92-0.23l0.96-0.37c0.92-0.43,1.77-0.87,2.47-1.23l0.86-0.42l0.64-0.41l0.68-0.61l0.59-0.6l1.22-1.54
	c0.55-0.79,1.13-1.67,1.83-2.8c0.99-1.68,1.88-3.31,2.55-4.55c0.78-1.48,1.53-2.99,2.25-4.45c0.42-0.85,0.84-1.7,1.27-2.55
	l0.47-0.94H67.28V6.62z M82.66,45.31h7.19l-7.2,13.25L82.66,45.31z M82.67,32.7h14.04l-5.39,9.93h-8.65L82.67,32.7z M82.67,20.12
	h20.87l-5.31,9.78l-15.56-0.03L82.67,20.12z M82.68,6.62h28.19l-5.73,10.55H82.68V6.62z M130.93,6.62h34.14l-16.8,30.06h-34.52
	L130.88,6.7L130.93,6.62z M129.98,69.39H95.05l17.21-30.12h34.55L129.98,69.39z M111.77,101.99H70.49c0.46-0.2,0.74-0.32,0.74-0.32
	c0.32-0.21,0.65-0.43,0.99-0.65c0.57-0.39,1.15-0.79,1.75-1.13c0.86-0.49,1.78-1.16,2.81-2.06c0.05-0.03,0.1-0.06,0.14-0.09
	c3.34-2.31,7.21-9.2,7.37-9.5l9.28-16.24h34.96L111.77,101.99z M1.41,54.3c0,29.16,23.72,52.88,52.88,52.88h0.09h60.43l59.1-105.75
	H54.29C25.14,1.43,1.41,25.15,1.41,54.3z"/>
</svg>
